<?xml version="1.0" encoding="UTF-8"?>
<svg xmlns="http://www.w3.org/2000/svg" xmlns:xlink="http://www.w3.org/1999/xlink" viewBox="150 0 190 240" role="img" aria-label="ClicksAndBits Apps logo mark">
  <defs>
    <linearGradient id="cb_g1" x1="284.3" y1="138.7" x2="179.1" y2="213.6" gradientUnits="userSpaceOnUse">
      <stop offset="0" stop-color="#00adee"/>
      <stop offset="1" stop-color="#2e3191"/>
    </linearGradient>
    <linearGradient id="cb_g11" x1="264" y1="110.2" x2="158.8" y2="185.2" xlink:href="#cb_g1"/>
    <linearGradient id="cb_lg" x1="281.2" y1="12.1" x2="175.7" y2="85.5" gradientUnits="userSpaceOnUse">
      <stop offset="0" stop-color="#f4ff19"/>
      <stop offset="1" stop-color="#4bb749"/>
    </linearGradient>
    <linearGradient id="cb_lg1" x1="275.4" y1="58.9" x2="203.4" y2="248.2" gradientUnits="userSpaceOnUse">
      <stop offset="0" stop-color="#3d80ab"/>
      <stop offset="1" stop-color="#0c3666"/>
    </linearGradient>
    <linearGradient id="cb_lg2" x1="220" y1="37.8" x2="148" y2="227.1" xlink:href="#cb_lg1"/>
    <linearGradient id="cb_lg3" x1="136.9" y1="197.7" x2="291.9" y2="33.5" gradientUnits="userSpaceOnUse">
      <stop offset="0" stop-color="#2e4d91"/>
      <stop offset="1" stop-color="#70e657"/>
    </linearGradient>
    <linearGradient id="cb_lg4" x1="341.3" y1="18.8" x2="122.6" y2="214.3" gradientUnits="userSpaceOnUse">
      <stop offset="0" stop-color="#36cd4a"/>
      <stop offset="1" stop-color="#2e3191"/>
    </linearGradient>
    <linearGradient id="cb_g12" x1="273.1" y1="95.2" x2="180.1" y2="157.7" xlink:href="#cb_g1"/>
  </defs>
  <g>
    <path d="M220.4,134.1c-15.9,7.9-35.7,18.7-48.3,32.7v30.8c0,4.1,3.4,7.5,7.5,7.5h85.5c4.1,0,7.5-3.4,7.5-7.5v-51.7h-18.4v-12.6h-12.6v-10.4c-6.5,3.7-13.5,7.4-21.3,11.3Z" fill="url(#cb_g1)"/>
    <path d="M245.6,120.6h7.7v-4.6c-2.5,1.5-5,3.1-7.7,4.6Z" fill="url(#cb_g11)"/>
    <rect x="272" y="129.3" width="16.5" height="16.5" fill="#5c8dd3"/>
    <rect x="277.4" y="93.4" width="12.4" height="12.4" fill="#4da8de"/>
    <path d="M263.3,52.2h-5.5c-1.5,6.3-7.2,11-13.9,11h-43.1c-6.7,0-12.4-4.7-13.9-11h-7.3c-4.1,0-7.5,3.4-7.5,7.5v55.9c4.9-3.6,9.8-6.7,14.7-9.4,38-20.4,59.4-36.5,76.5-54Z" fill="url(#cb_lg)"/>
    <rect x="216.2" y="168.9" width="7.1" height="7.1" fill="#36be4a"/>
    <rect x="229.1" y="133.2" width="12.6" height="12.6" fill="#36be4a"/>
    <rect x="298" y="84" width="8.7" height="8.7" fill="#36be4a"/>
    <rect x="260.1" y="108.2" width="14.3" height="14.3" fill="#36be4a"/>
    <rect x="216.2" y="144" width="7.1" height="7.1" fill="#36be4a"/>
    <rect x="209.1" y="156.6" width="7.1" height="7.1" fill="#36be4a"/>
    <path d="M277.6,151.6v46c0,6.9-5.6,12.6-12.6,12.6h-85.5c-6.9,0-12.6-5.6-12.6-12.6v-34.9s0,0,0,0c-3.7,4.2-6.6,8.4-8.8,12.7v42.3c0,11.8,9.6,21.4,21.4,21.4h85.4c11.8,0,21.4-9.6,21.4-21.4v-66.1h-8.8Z" fill="url(#cb_lg1)"/>
    <path d="M167,59.7c0-6.9,5.6-12.6,12.6-12.6h11.9v1.7c0,5.1,4.1,9.3,9.3,9.3h43.1c5.1,0,9.3-4.1,9.3-9.3v-1.7h12c.9,0,1.8.1,2.7.3,2.1-2.3,4.1-4.6,6.2-6.9-2.7-1.3-5.7-2-8.9-2h-85.4c-11.8,0-21.4,9.6-21.4,21.4v67.5c2.8-2.8,5.8-5.5,8.9-8v-59.8Z" fill="url(#cb_lg2)"/>
    <path d="M265.6,27.7s11.6,7.9,16.8,11.7c-22.6,27.2-45.4,46.3-92.9,71.9-33.8,18.1-76.1,65.8-35.6,107.9-34.4-48.6,20.8-88,54.5-106.1,64.6-34.7,78.8-57.2,113.5-104.6l-56.3,19.3Z" fill="url(#cb_lg3)"/>
    <path d="M321.9,8.5c-34.7,47.4-48.9,69.9-113.5,104.6-33.8,18.1-88.9,57.5-54.5,106.1-24-49.5,27-79.1,61-96,47-23.3,66.6-41.3,86.7-67l13.8,13.1,6.5-60.7Z" fill="url(#cb_lg4)"/>
    <rect x="241.7" y="145.8" width="12.6" height="12.6" fill="#f4a419"/>
    <rect x="254.2" y="133.2" width="12.6" height="12.6" fill="#f4cb19"/>
    <rect x="296.8" y="135.2" width="7.8" height="7.8" fill="#e98c24"/>
    <rect x="309.2" y="98.7" width="10.4" height="10.4" fill="#f4cb19"/>
    <rect x="289.5" y="111.6" width="15.1" height="15.1" fill="#f4a419"/>
    <path d="M222.3,224.9c-.8,0-1.5-.7-1.5-1.5v-8.4c0-.8.7-1.5,1.5-1.5s1.5.7,1.5,1.5v8.4c0,.8-.7,1.5-1.5,1.5Z" fill="#fff"/>
    <rect x="210.9" y="47.1" width="21" height="5" rx="2.5" ry="2.5" fill="#fff"/>
    <circle cx="238.6" cy="49.6" r="2.5" fill="#fff"/>
    <path d="M222.3,232.9c-4.9,0-8.9-4-8.9-8.9s.9-4.6,2.7-6.3c.6-.6,1.5-.6,2.1,0,.6.6.6,1.5,0,2.1-1.1,1.1-1.8,2.6-1.8,4.2,0,3.3,2.7,5.9,5.9,5.9s5.9-2.7,5.9-5.9-.6-3.1-1.8-4.2c-.6-.6-.6-1.5,0-2.1.6-.6,1.5-.6,2.1,0,1.7,1.7,2.7,3.9,2.7,6.3,0,4.9-4,8.9-8.9,8.9Z" fill="#fff"/>
    <polygon points="269.5 172.8 225.4 154.4 237.7 200.5 246.4 189.6 256.7 201.4 267.8 191.7 257.4 179.9 269.5 172.8" fill="#2e3159"/>
    <polygon points="230.8 160.5 259.9 193.8 262.7 191.4 251.9 179 261.5 173.3 230.8 160.5" fill="#fff"/>
    <polygon points="239.3 192.7 246.2 183.9 257.1 196.3 259.9 193.8 230.8 160.5 239.3 192.7" fill="#e6e7e8"/>
    <path d="M220.4,134.1c7.8-3.9,14.9-7.6,21.3-11.3v-2.2h3.9c2.7-1.6,5.2-3.1,7.7-4.6v-7.6c-10,6.4-21.7,13-35.8,20-14.6,7.2-32.3,16.9-45.4,29.2v9.2c12.6-13.9,32.4-24.8,48.3-32.7Z" fill="url(#cb_g12)"/>
  </g>
</svg>
