<?xml version="1.0" encoding="UTF-8"?>
<svg id="Layer_2" xmlns="http://www.w3.org/2000/svg" width="6.2in" height="5.5in" xmlns:xlink="http://www.w3.org/1999/xlink" version="1.1" viewBox="0 0 449.8 395.1">
  <!-- Generator: Adobe Illustrator 30.3.0, SVG Export Plug-In . SVG Version: 2.1.3 Build 182)  -->
  <defs>
    <linearGradient id="New_Gradient_Swatch_1" data-name="New Gradient Swatch 1" x1="284.3" y1="138.7" x2="179.1" y2="213.6" gradientUnits="userSpaceOnUse">
      <stop offset="0" stop-color="#00adee"/>
      <stop offset="1" stop-color="#2e3191"/>
    </linearGradient>
    <linearGradient id="New_Gradient_Swatch_11" data-name="New Gradient Swatch 1" x1="264" y1="110.2" x2="158.8" y2="185.2" xlink:href="#New_Gradient_Swatch_1"/>
    <linearGradient id="linear-gradient" x1="281.2" y1="12.1" x2="175.7" y2="85.5" gradientUnits="userSpaceOnUse">
      <stop offset="0" stop-color="#f4ff19"/>
      <stop offset="1" stop-color="#4bb749"/>
    </linearGradient>
    <linearGradient id="linear-gradient1" x1="275.4" y1="58.9" x2="203.4" y2="248.2" gradientUnits="userSpaceOnUse">
      <stop offset="0" stop-color="#3d80ab"/>
      <stop offset="1" stop-color="#0c3666"/>
    </linearGradient>
    <linearGradient id="linear-gradient2" x1="220" y1="37.8" x2="148" y2="227.1" xlink:href="#linear-gradient1"/>
    <linearGradient id="linear-gradient3" x1="136.9" y1="197.7" x2="291.9" y2="33.5" gradientUnits="userSpaceOnUse">
      <stop offset="0" stop-color="#2e4d91"/>
      <stop offset="1" stop-color="#70e657"/>
    </linearGradient>
    <linearGradient id="linear-gradient4" x1="341.3" y1="18.8" x2="122.6" y2="214.3" gradientUnits="userSpaceOnUse">
      <stop offset="0" stop-color="#36cd4a"/>
      <stop offset="1" stop-color="#2e3191"/>
    </linearGradient>
    <linearGradient id="New_Gradient_Swatch_12" data-name="New Gradient Swatch 1" x1="273.1" y1="95.2" x2="180.1" y2="157.7" xlink:href="#New_Gradient_Swatch_1"/>
  </defs>
  <g>
    <path d="M46.6,289.2l7.5,6.4c-1.4,1.7-3.1,3.3-5.2,4.7-2.1,1.4-4.5,2.6-7.1,3.5-2.6.9-5.5,1.3-8.5,1.3-4.9,0-9.3-1-13.1-3-3.8-2-6.7-4.8-8.9-8.4-2.1-3.5-3.2-7.6-3.2-12.2s.6-6.5,1.8-9.4c1.2-2.9,2.9-5.5,5.2-7.6,2.2-2.2,4.9-3.9,8-5.1,3.1-1.2,6.5-1.8,10.3-1.8s8.4.8,11.9,2.3c3.4,1.5,6.2,3.8,8.5,6.6l-7.5,6.7c-1.5-1.9-3.2-3.4-5.2-4.6-2-1.2-4.4-1.7-7.2-1.7s-5.5.6-7.6,1.9c-2.1,1.3-3.8,3-4.9,5.2-1.1,2.2-1.7,4.6-1.7,7.2s.6,5.1,1.7,7.2c1.1,2.1,2.8,3.8,4.9,5,2.1,1.2,4.6,1.9,7.4,1.9s4.3-.3,5.9-.9c1.6-.6,2.9-1.3,4-2.3,1.1-.9,2.1-1.9,3.1-2.9Z" fill="#2e3191"/>
    <path d="M59.1,303.9v-45.2h10.5v45.2h-10.5Z" fill="#2e3191"/>
    <path d="M75.8,267.4v-8.7h11.3v8.7h-11.3ZM76.2,303.9v-31.8h10.5v31.8h-10.5Z" fill="#2e3191"/>
    <path d="M118,293.3l6.1,6.4c-1.4,1.4-3.3,2.7-5.6,3.7-2.3,1-5.1,1.6-8.2,1.6s-6.9-.7-9.7-2.2-5-3.5-6.5-6c-1.6-2.6-2.3-5.5-2.3-8.8s.8-6,2.4-8.6c1.6-2.6,3.8-4.6,6.6-6.1,2.8-1.5,6-2.3,9.5-2.3s5.8.5,8.2,1.4c2.3.9,4.2,2.2,5.7,3.8l-6.4,6.4c-.8-.8-1.7-1.5-2.9-2.2-1.1-.6-2.6-.9-4.5-.9s-3.1.4-4.3,1.2c-1.2.8-2.2,1.8-2.8,3.1-.7,1.3-1,2.7-1,4.2s.3,2.7,1,4c.7,1.3,1.6,2.4,2.8,3.2,1.2.8,2.7,1.3,4.3,1.3s3.3-.3,4.5-1c1.2-.7,2.2-1.4,2.9-2.1Z" fill="#2e3191"/>
    <path d="M129,303.9v-45.2h10.5v23.5l10.5-10h11.9l-12.3,11.7,14,20.1h-12.2l-8.8-13.4-3.1,2.9v10.5h-10.5Z" fill="#2e3191"/>
    <path d="M163.4,300.3l5.2-6.2c1.1.9,2.6,1.7,4.4,2.4,1.8.6,3.6.9,5.3.9s2.9-.2,3.9-.6c1-.4,1.5-1.1,1.5-2.1s-.2-1.1-.6-1.5c-.4-.4-1.2-.8-2.3-1.2-1.1-.4-2.8-.9-5-1.4-1.8-.5-3.5-1.1-5.1-1.8-1.6-.8-3-1.8-4-3.1-1-1.3-1.6-2.9-1.6-4.8s.6-3.7,1.9-5.2c1.3-1.5,3-2.6,5.2-3.5,2.2-.8,4.7-1.3,7.4-1.3s5.5.3,7.7.9c2.2.6,4.2,1.5,6,2.7l-4.5,6.4c-1.1-.7-2.3-1.3-3.8-1.8-1.5-.5-3.1-.8-4.9-.8s-2.8.2-3.5.6c-.7.4-1.1,1-1.1,1.7,0,1,.8,1.8,2.3,2.3,1.5.5,3.6,1.1,6.1,1.7,3.5.9,6,2.1,7.6,3.7,1.6,1.6,2.4,3.7,2.4,6.3s-.7,4.2-2.2,5.7c-1.5,1.5-3.4,2.6-5.7,3.4-2.3.7-4.8,1.1-7.4,1.1s-6-.4-8.7-1.2c-2.7-.8-5-2-6.7-3.5Z" fill="#2e3191"/>
    <path d="M195.9,303.9l19.1-45.2h7.2l19.1,45.2h-7.8l-5.1-12.6h-20.1l-5.1,12.6h-7.4ZM210.4,285.8h15.9l-7.9-19.9-8,19.9Z" fill="#5c8dd3"/>
    <path d="M251.8,303.9h-6.6v-29.5c0-.4,0-1.1,0-2h6.3l.2,4.7c.6-.8,1.4-1.6,2.3-2.4,1-.8,2.2-1.6,3.7-2.2,1.5-.6,3.3-.9,5.4-.9,4.4,0,7.7,1.2,9.9,3.6s3.2,5.7,3.2,9.7v18.9h-6.6v-18.4c0-2.9-.7-5.1-2.1-6.5-1.4-1.4-3.3-2.1-5.7-2.1s-4.5.6-5.9,1.8c-1.5,1.2-2.5,2.7-3.1,4.6-.6,1.9-.9,3.9-.9,5.9v14.6Z" fill="#5c8dd3"/>
    <path d="M306.9,303.9l-.2-4c-.3.4-1,.9-1.9,1.8-.9.8-2.1,1.5-3.6,2.2-1.5.7-3.4,1-5.6,1s-5.5-.7-7.8-2c-2.3-1.3-4.1-3.2-5.4-5.7-1.3-2.4-2-5.3-2-8.6s.5-5.5,1.6-7.7c1.1-2.1,2.5-3.9,4.3-5.3s3.6-2.4,5.7-3c2-.7,3.9-1,5.7-1s3.5.2,4.8.5c1.3.4,2.7.9,4.1,1.5v-15h6.6v43.3c0,.7,0,1.3,0,1.9h-6.4ZM306.7,290.6v-11.3c-.9-.7-2-1.2-3.4-1.7-1.4-.5-3-.7-5-.7-3.2,0-5.8,1-7.9,3.1-2.1,2.1-3.2,4.9-3.2,8.5s.4,3.8,1.1,5.5c.7,1.7,1.8,3,3.3,4s3.3,1.5,5.6,1.5,4.1-.5,5.5-1.5c1.4-1,2.4-2.2,3.1-3.6.7-1.4,1-2.7,1-3.9Z" fill="#5c8dd3"/>
    <path d="M321.1,303.9v-45.2h18.3c4,0,7.3.6,9.7,1.7,2.4,1.1,4.2,2.6,5.2,4.3,1.1,1.8,1.6,3.7,1.6,5.8s-.5,3.5-1.4,4.9c-.9,1.4-1.9,2.4-3.1,3.2-1.1.7-2.1,1.2-2.9,1.4.4,0,.8.2,1.4.4.5.2,1,.4,1.6.6,2,.8,3.7,2.1,5,3.8,1.3,1.7,2,3.8,2,6.2,0,4.7-1.7,8-5.2,10-3.4,2-8.1,3-13.9,3h-18.3ZM331.9,276.8h6.5c1.7,0,3.2-.4,4.6-1.1,1.4-.7,2.1-2.1,2.1-4s-.3-2.4-1-3.1c-.7-.7-1.5-1.2-2.5-1.5-1-.3-2.1-.4-3.1-.4h-6.5v10.2ZM331.9,296h7.2c1.1,0,2.3-.1,3.6-.4,1.3-.2,2.4-.8,3.3-1.6.9-.8,1.4-2.1,1.4-3.9s-.5-2.9-1.4-3.7c-.9-.9-2-1.4-3.3-1.7-1.3-.3-2.5-.4-3.6-.4h-7.2v11.8Z" fill="#2e3191"/>
    <path d="M362.2,267.4v-8.7h11.3v8.7h-11.3ZM362.6,303.9v-31.8h10.5v31.8h-10.5Z" fill="#2e3191"/>
    <path d="M382.3,291.7v-12h-5.4v-7.7h5.4v-10.4h10.5v10.4h8.9v7.7h-8.9v12.5c0,1.5.3,2.7,1,3.6.7.8,1.7,1.3,3.1,1.3s2-.2,2.8-.5c.8-.3,1.5-.7,2.2-1.2l4.2,6c-3.3,2.4-6.9,3.7-10.8,3.7s-5.9-.6-7.8-1.7-3.3-2.7-4.1-4.7c-.8-2-1.2-4.3-1.2-6.9Z" fill="#2e3191"/>
    <path d="M407.2,300.3l5.2-6.2c1.1.9,2.6,1.7,4.4,2.4,1.8.6,3.6.9,5.3.9s2.9-.2,3.9-.6c1-.4,1.5-1.1,1.5-2.1s-.2-1.1-.6-1.5c-.4-.4-1.2-.8-2.3-1.2-1.1-.4-2.8-.9-5-1.4-1.8-.5-3.5-1.1-5.1-1.8-1.6-.8-3-1.8-4-3.1-1-1.3-1.6-2.9-1.6-4.8s.6-3.7,1.9-5.2c1.3-1.5,3-2.6,5.2-3.5,2.2-.8,4.7-1.3,7.4-1.3s5.5.3,7.7.9c2.2.6,4.2,1.5,6,2.7l-4.5,6.4c-1.1-.7-2.3-1.3-3.8-1.8s-3.1-.8-4.9-.8-2.8.2-3.5.6c-.7.4-1.1,1-1.1,1.7,0,1,.8,1.8,2.3,2.3,1.5.5,3.6,1.1,6.1,1.7,3.5.9,6,2.1,7.6,3.7,1.6,1.6,2.4,3.7,2.4,6.3s-.7,4.2-2.2,5.7c-1.5,1.5-3.4,2.6-5.7,3.4-2.3.7-4.8,1.1-7.4,1.1s-6-.4-8.7-1.2c-2.7-.8-5-2-6.7-3.5Z" fill="#2e3191"/>
    <path d="M113.8,345.2l14.1-34.5h7.3l14.1,34.5h-7.8l-3.2-8.8h-13.9l-3.2,8.8h-7.4ZM126.4,331.1h9.9l-4.9-13.4-5,13.4Z" fill="#5c8dd3"/>
    <path d="M152,355.6v-34.6h6.4l.2,2.7c.7-.7,1.7-1.4,3-2.1,1.4-.7,3.1-1.1,5.3-1.1s4.9.6,6.6,1.8c1.7,1.2,3,2.8,3.9,4.7.9,1.9,1.3,4,1.3,6.2s-.3,3.5-.9,4.9c-.6,1.3-1.3,2.5-2.2,3.5-1.5,1.6-3.1,2.8-4.9,3.4-1.8.7-3.6,1-5.5,1s-3-.1-3.9-.4c-.9-.3-1.8-.6-2.8-.9v10.8h-6.5ZM158.6,332.1v7.2c1.3,1,3.3,1.5,5.9,1.5s3-.4,4.1-1.1c1.1-.7,2-1.7,2.6-2.8.6-1.2.9-2.4.9-3.7s-.2-2.6-.6-3.8c-.4-1.1-1.1-2-2.2-2.7-1-.7-2.3-1-4-1s-2.5.3-3.5,1c-1,.7-1.8,1.5-2.3,2.5-.6,1-.8,1.9-.8,2.9Z" fill="#5c8dd3"/>
    <path d="M182.8,355.6v-34.6h6.4l.2,2.7c.7-.7,1.7-1.4,3-2.1,1.4-.7,3.1-1.1,5.3-1.1s4.9.6,6.6,1.8c1.7,1.2,3,2.8,3.9,4.7.9,1.9,1.3,4,1.3,6.2s-.3,3.5-.9,4.9c-.6,1.3-1.3,2.5-2.2,3.5-1.5,1.6-3.1,2.8-4.9,3.4-1.8.7-3.6,1-5.5,1s-3-.1-3.9-.4c-.9-.3-1.8-.6-2.8-.9v10.8h-6.5ZM189.4,332.1v7.2c1.3,1,3.3,1.5,5.9,1.5s3-.4,4.1-1.1c1.1-.7,2-1.7,2.6-2.8.6-1.2.9-2.4.9-3.7s-.2-2.6-.6-3.8c-.4-1.1-1.1-2-2.2-2.7-1-.7-2.3-1-4-1s-2.5.3-3.5,1c-1,.7-1.8,1.5-2.3,2.5-.6,1-.8,1.9-.8,2.9Z" fill="#5c8dd3"/>
    <path d="M211.2,342.3l4-4c.8.8,1.9,1.4,3.1,1.9,1.2.5,2.7.8,4.3.8s2.6-.2,3.4-.5c.9-.4,1.3-.9,1.3-1.7s-.2-.9-.5-1.3c-.3-.4-.9-.7-1.9-1.1-.9-.4-2.4-.8-4.3-1.2-1.2-.3-2.4-.7-3.7-1.2-1.3-.6-2.4-1.3-3.3-2.4-.9-1-1.4-2.3-1.4-3.9s.5-3,1.6-4.1c1.1-1.1,2.4-2,4.1-2.6,1.7-.6,3.4-.9,5.1-.9s4.3.2,5.9.7c1.6.4,3.1,1.1,4.4,2l-3.4,4.3c-.7-.5-1.6-.9-2.8-1.3-1.2-.4-2.5-.6-4.1-.6s-2.6.2-3.2.6c-.6.4-1,1-1,1.6s.5,1.4,1.5,1.8c1,.4,2.6.9,4.8,1.4,2.6.6,4.8,1.4,6.3,2.6,1.6,1.2,2.4,2.9,2.4,5.3s-.5,2.9-1.5,4.1c-1,1.2-2.4,2-4.1,2.7-1.7.6-3.6.9-5.6.9s-4.6-.3-6.6-1c-2-.6-3.6-1.6-4.8-2.8Z" fill="#5c8dd3"/>
    <path d="M237.8,345.2v-5.8h6.5v5.8h-6.5Z" fill="#8ca0aa"/>
    <path d="M263.5,339.4l3.2,3.2c-1,1-2.2,1.8-3.5,2.3s-2.9.9-4.7.9-4.5-.4-6.2-1.3c-1.7-.9-3-2.1-3.9-3.7-.9-1.6-1.3-3.4-1.3-5.5s.5-3.6,1.4-5.2c1-1.6,2.3-2.9,4-3.8,1.7-.9,3.7-1.4,5.9-1.4s3.3.3,4.7.9c1.4.6,2.6,1.3,3.6,2.3l-3.4,3.2c-.6-.6-1.3-1.1-2.1-1.5-.8-.4-1.8-.5-2.8-.5s-2.5.3-3.4.9c-.9.6-1.5,1.3-2,2.3-.4.9-.7,1.9-.7,3s.2,1.9.7,2.9c.4.9,1.1,1.7,2,2.3.9.6,2,.9,3.4.9s2-.2,2.9-.6c.9-.4,1.6-.9,2.2-1.5Z" fill="#8ca0aa"/>
    <path d="M269.5,335.4c0-1.9.5-3.6,1.4-5.2s2.3-2.9,4-3.8c1.7-.9,3.7-1.4,5.9-1.4s4.2.5,5.9,1.4c1.7.9,3,2.2,4,3.8,1,1.6,1.4,3.3,1.4,5.2s-.5,3.6-1.4,5.2c-1,1.6-2.3,2.9-4,3.8s-3.7,1.4-5.9,1.4-4.2-.5-5.9-1.4-3-2.2-4-3.8-1.4-3.3-1.4-5.2ZM280.8,341.6c1.4,0,2.5-.3,3.4-1,.9-.6,1.5-1.4,2-2.4.4-1,.7-1.9.7-2.9s-.2-1.9-.7-2.8c-.4-.9-1.1-1.7-2-2.4-.9-.6-2-1-3.4-1s-2.5.3-3.4,1c-.9.6-1.5,1.4-2,2.4-.4.9-.7,1.9-.7,2.8s.2,1.9.7,2.9c.4,1,1.1,1.8,2,2.4.9.6,2,1,3.4,1Z" fill="#8ca0aa"/>
    <path d="M296.4,345.2v-19.6h5.1v2.2c.6-.6,1.4-1.2,2.3-1.8s2.3-.9,3.9-.9c2.8,0,4.9.9,6.4,2.8,1.1-1,2.2-1.8,3.3-2.2,1.1-.4,2.5-.6,3.9-.6,2.7,0,4.7.7,6.2,2.2s2.1,3.4,2.1,5.9v11.9h-5.3v-11.9c0-1.2-.3-2.2-1-2.9s-1.6-1-2.8-1-2.7.5-3.5,1.5c-.9,1-1.3,2.2-1.3,3.7v10.6h-5.3v-11.9c0-1.2-.3-2.2-1-2.9s-1.6-1-2.8-1-2.7.5-3.5,1.5c-.9,1-1.3,2.2-1.3,3.7v10.6h-5.3Z" fill="#8ca0aa"/>
  </g>
  <g>
    <path d="M47.4,379.9v-16.9h11.4v3.4h-7.5v3.8h5.7v3.3h-5.7v6.4h-3.8Z" fill="#647883"/>
    <path d="M63.1,379.9v-16.9h6.3c1.3,0,2.4.2,3.3.7.9.5,1.5,1.1,2,1.9.4.8.7,1.7.7,2.6s-.2,2-.7,2.9c-.5.8-1.2,1.5-2,2l3.8,6.8h-4.2l-3.1-6.2h-2.1v6.2h-3.7ZM66.9,370.6h2.4c.7,0,1.3-.2,1.7-.6.4-.4.6-1,.6-1.6s-.2-1.2-.6-1.6c-.4-.4-1-.6-1.7-.6h-2.4v4.5Z" fill="#647883"/>
    <path d="M80.5,379.9v-16.9h11.6v3.3h-7.7v3.3h6v3.2h-6v3.6h8.3v3.4h-12.1Z" fill="#647883"/>
    <path d="M97.3,379.9v-16.9h11.6v3.3h-7.7v3.3h6v3.2h-6v3.6h8.3v3.4h-12.1Z" fill="#647883"/>
    <path d="M119.1,379.9l6.3-16.9h4.2l6.2,16.9h-4.2l-1.3-3.9h-6l-1.3,3.9h-4ZM125.3,373.1h4.2l-2.1-6.4-2.1,6.4Z" fill="#647883"/>
    <path d="M139.7,379.9v-16.9h3.6l7.3,11v-11h3.8v16.9h-3.5l-7.5-11.2v11.2h-3.8Z" fill="#647883"/>
    <path d="M159.8,379.9v-16.9h6.4c1.7,0,3.3.3,4.6.9,1.4.6,2.4,1.5,3.2,2.8.8,1.3,1.2,2.9,1.2,4.9s-.4,3.4-1.2,4.6c-.8,1.2-1.9,2.2-3.2,2.8-1.4.6-2.9.9-4.6.9h-6.4ZM163.6,376.5h2.3c1.7,0,3-.4,3.9-1.3s1.4-2.1,1.4-3.6-.4-2.8-1.3-3.7c-.8-.9-2.2-1.4-4-1.4h-2.3v10.1Z" fill="#647883"/>
    <path d="M179.8,379.9v-16.9h6.3c1.3,0,2.4.2,3.3.7.9.5,1.5,1.1,2,1.9.4.8.7,1.7.7,2.6s-.2,2-.7,2.9c-.5.8-1.2,1.5-2,2l3.8,6.8h-4.2l-3.1-6.2h-2.1v6.2h-3.7ZM183.6,370.6h2.4c.7,0,1.3-.2,1.7-.6.4-.4.6-1,.6-1.6s-.2-1.2-.6-1.6c-.4-.4-1-.6-1.7-.6h-2.4v4.5Z" fill="#647883"/>
    <path d="M204.7,380.3c-1.2,0-2.4-.2-3.5-.7-1.1-.4-2-1.1-2.8-1.9-.8-.8-1.4-1.8-1.9-2.8-.4-1.1-.7-2.2-.7-3.5s.2-2.4.7-3.5c.4-1.1,1.1-2,1.8-2.8.8-.8,1.7-1.4,2.8-1.9,1.1-.4,2.2-.7,3.5-.7s2.4.2,3.5.7c1.1.4,2,1.1,2.8,1.9.8.8,1.4,1.8,1.9,2.8.4,1.1.7,2.2.7,3.5s-.2,2.4-.7,3.5-1.1,2-1.9,2.8c-.8.8-1.7,1.4-2.8,1.9-1.1.4-2.2.7-3.5.7ZM204.7,376.7c1,0,1.9-.2,2.6-.7.7-.5,1.3-1.1,1.6-2,.4-.8.6-1.7.6-2.7s-.2-1.8-.6-2.6c-.4-.8-.9-1.4-1.6-1.9s-1.6-.7-2.6-.7-1.9.2-2.6.7c-.7.5-1.3,1.1-1.7,1.9s-.6,1.7-.6,2.6.2,1.8.6,2.7c.4.8.9,1.5,1.7,2,.7.5,1.6.7,2.6.7Z" fill="#647883"/>
    <path d="M218.2,379.9v-16.9h3.8v16.9h-3.8Z" fill="#647883"/>
    <path d="M227.3,379.9v-16.9h6.4c1.7,0,3.3.3,4.6.9s2.4,1.5,3.2,2.8c.8,1.3,1.2,2.9,1.2,4.9s-.4,3.4-1.2,4.6c-.8,1.2-1.9,2.2-3.2,2.8-1.4.6-2.9.9-4.6.9h-6.4ZM231.2,376.5h2.3c1.7,0,3-.4,3.9-1.3s1.4-2.1,1.4-3.6-.4-2.8-1.3-3.7-2.2-1.4-4-1.4h-2.3v10.1Z" fill="#647883"/>
    <path d="M264.6,379.9l-1.2-1.4c-.7.6-1.5,1.1-2.2,1.4s-1.6.4-2.5.4-2.1-.2-2.9-.6c-.8-.4-1.5-1-2-1.7-.5-.7-.7-1.6-.7-2.5s.3-1.9.8-2.9c.5-.9,1.4-1.7,2.5-2.4-.4-.5-.7-1.1-.8-1.6-.2-.5-.3-1.1-.3-1.6,0-.8.2-1.5.6-2.2.4-.7,1-1.2,1.8-1.6.8-.4,1.7-.6,2.7-.6s2.2.3,3,.9,1.3,1.3,1.7,2.1l-2.6,1.6c-.3-.6-.6-1-.9-1.2s-.7-.4-1.1-.4-.9.1-1.2.4-.5.7-.5,1.1,0,.7.3,1c.2.3.4.6.6.9l4,4.7,2.3-2.6,2.5,2.2-2.6,3,3.2,3.8h-4.5ZM261.4,376.1l-3.1-3.6c-.6.4-1,.9-1.3,1.3-.2.4-.4.9-.4,1.4s.2,1.1.6,1.5c.4.4,1,.6,1.7.6s.9,0,1.3-.3c.4-.2.7-.4,1.1-.8Z" fill="#647883"/>
    <path d="M279.2,366.3v-3.3h3.9v3.3h-3.9ZM279.3,379.9v-11.9h3.6v11.9h-3.6Z" fill="#647883"/>
    <path d="M296.2,380.3c-1.2,0-2.4-.2-3.5-.7-1.1-.4-2-1.1-2.8-1.9-.8-.8-1.4-1.8-1.9-2.8s-.7-2.2-.7-3.5.2-2.4.7-3.5c.4-1.1,1.1-2,1.8-2.8.8-.8,1.7-1.4,2.8-1.9,1.1-.4,2.2-.7,3.5-.7s2.4.2,3.5.7c1.1.4,2,1.1,2.8,1.9.8.8,1.4,1.8,1.9,2.8.4,1.1.7,2.2.7,3.5s-.2,2.4-.7,3.5c-.4,1.1-1.1,2-1.9,2.8-.8.8-1.7,1.4-2.8,1.9-1.1.4-2.2.7-3.5.7ZM296.2,376.7c1,0,1.9-.2,2.6-.7.7-.5,1.3-1.1,1.6-2,.4-.8.6-1.7.6-2.7s-.2-1.8-.6-2.6-.9-1.4-1.6-1.9-1.6-.7-2.6-.7-1.9.2-2.6.7-1.3,1.1-1.7,1.9-.6,1.7-.6,2.6.2,1.8.6,2.7c.4.8.9,1.5,1.7,2,.7.5,1.6.7,2.6.7Z" fill="#647883"/>
    <path d="M308.5,377.5l2.5-2.7c.4.5,1,.9,1.8,1.4.7.5,1.6.7,2.6.7s.8,0,1.1-.2c.4-.1.7-.4.9-.6.2-.3.4-.6.4-1,0-.6-.3-1.1-.9-1.5-.6-.4-1.6-.7-2.9-1-1.3-.3-2.3-.9-3.2-1.7-.8-.8-1.3-1.9-1.3-3.1s.2-1.8.7-2.6c.5-.8,1.1-1.4,2.1-1.9.9-.5,2.1-.7,3.4-.7s2.1.1,2.9.4c.8.3,1.4.6,1.9,1,.5.4.8.6,1,.9l-2.2,2.4c-.4-.3-.9-.6-1.5-1-.6-.4-1.3-.5-2.2-.5s-1,.2-1.5.5-.7.7-.7,1.1.3,1,.9,1.4,1.4.7,2.5.9c.8.2,1.6.5,2.4.9s1.4,1,1.9,1.7c.5.7.7,1.7.7,2.8s-.3,1.9-.9,2.7c-.6.8-1.4,1.4-2.3,1.9-1,.5-2.1.7-3.3.7s-2.1-.1-3-.4c-.9-.3-1.6-.6-2.3-1.1-.6-.4-1.2-.9-1.6-1.4Z" fill="#647883"/>
    <path d="M331.8,379.9l6.3-16.9h4.2l6.2,16.9h-4.2l-1.3-3.9h-6l-1.3,3.9h-4ZM338,373.1h4.2l-2.1-6.4-2.1,6.4Z" fill="#647883"/>
    <path d="M352.4,379.9v-16.9h6.2c1.4,0,2.5.3,3.4.8.9.5,1.5,1.2,1.9,2,.4.8.6,1.7.6,2.7s-.3,2.2-.8,3-1.2,1.4-2.1,1.8c-.9.4-1.8.6-2.8.6h-2.6v6h-3.7ZM356.1,370.9h2.2c.7,0,1.2-.2,1.7-.7.4-.4.6-1,.6-1.7s-.2-1.3-.6-1.7c-.4-.4-1-.7-1.7-.7h-2.2v4.7Z" fill="#647883"/>
    <path d="M369.1,379.9v-16.9h6.2c1.4,0,2.5.3,3.4.8.9.5,1.5,1.2,1.9,2,.4.8.6,1.7.6,2.7s-.3,2.2-.8,3-1.2,1.4-2.1,1.8c-.9.4-1.8.6-2.8.6h-2.6v6h-3.7ZM372.8,370.9h2.2c.7,0,1.2-.2,1.7-.7.4-.4.6-1,.6-1.7s-.2-1.3-.6-1.7c-.4-.4-1-.7-1.7-.7h-2.2v4.7Z" fill="#647883"/>
    <path d="M384.3,377.5l2.5-2.7c.4.5,1,.9,1.8,1.4s1.6.7,2.6.7.8,0,1.1-.2c.4-.1.7-.4.9-.6.2-.3.4-.6.4-1,0-.6-.3-1.1-.9-1.5-.6-.4-1.6-.7-2.9-1-1.3-.3-2.3-.9-3.2-1.7-.8-.8-1.3-1.9-1.3-3.1s.2-1.8.7-2.6c.5-.8,1.1-1.4,2.1-1.9.9-.5,2.1-.7,3.4-.7s2.1.1,2.9.4c.8.3,1.4.6,1.9,1,.5.4.8.6,1,.9l-2.2,2.4c-.4-.3-.9-.6-1.5-1-.6-.4-1.3-.5-2.2-.5s-1,.2-1.5.5-.7.7-.7,1.1.3,1,.9,1.4,1.4.7,2.5.9c.8.2,1.6.5,2.4.9.8.4,1.4,1,1.9,1.7.5.7.7,1.7.7,2.8s-.3,1.9-.9,2.7-1.4,1.4-2.3,1.9c-1,.5-2.1.7-3.3.7s-2.1-.1-3-.4c-.9-.3-1.6-.6-2.3-1.1-.6-.4-1.2-.9-1.6-1.4Z" fill="#647883"/>
  </g>
  <g>
    <g>
      <path d="M220.4,134.1c-15.9,7.9-35.7,18.7-48.3,32.7v30.8c0,4.1,3.4,7.5,7.5,7.5h85.5c4.1,0,7.5-3.4,7.5-7.5v-51.7h-18.4v-12.6h-12.6v-10.4c-6.5,3.7-13.5,7.4-21.3,11.3Z" fill="url(#New_Gradient_Swatch_1)"/>
      <path d="M245.6,120.6h7.7v-4.6c-2.5,1.5-5,3.1-7.7,4.6Z" fill="url(#New_Gradient_Swatch_11)"/>
    </g>
    <rect x="272" y="129.3" width="16.5" height="16.5" fill="#5c8dd3"/>
    <rect x="277.4" y="93.4" width="12.4" height="12.4" fill="#4da8de"/>
    <path d="M263.3,52.2h-5.5c-1.5,6.3-7.2,11-13.9,11h-43.1c-6.7,0-12.4-4.7-13.9-11h-7.3c-4.1,0-7.5,3.4-7.5,7.5v55.9c4.9-3.6,9.8-6.7,14.7-9.4,38-20.4,59.4-36.5,76.5-54Z" fill="url(#linear-gradient)"/>
    <rect x="216.2" y="168.9" width="7.1" height="7.1" fill="#36be4a"/>
    <rect x="229.1" y="133.2" width="12.6" height="12.6" fill="#36be4a"/>
    <rect x="298" y="84" width="8.7" height="8.7" fill="#36be4a"/>
    <rect x="260.1" y="108.2" width="14.3" height="14.3" fill="#36be4a"/>
    <rect x="216.2" y="144" width="7.1" height="7.1" fill="#36be4a"/>
    <rect x="209.1" y="156.6" width="7.1" height="7.1" fill="#36be4a"/>
    <g>
      <path d="M277.6,151.6v46c0,6.9-5.6,12.6-12.6,12.6h-85.5c-6.9,0-12.6-5.6-12.6-12.6v-34.9s0,0,0,0c-3.7,4.2-6.6,8.4-8.8,12.7v42.3c0,11.8,9.6,21.4,21.4,21.4h85.4c11.8,0,21.4-9.6,21.4-21.4v-66.1h-8.8Z" fill="url(#linear-gradient1)"/>
      <path d="M167,59.7c0-6.9,5.6-12.6,12.6-12.6h11.9v1.7c0,5.1,4.1,9.3,9.3,9.3h43.1c5.1,0,9.3-4.1,9.3-9.3v-1.7h12c.9,0,1.8.1,2.7.3,2.1-2.3,4.1-4.6,6.2-6.9-2.7-1.3-5.7-2-8.9-2h-85.4c-11.8,0-21.4,9.6-21.4,21.4v67.5c2.8-2.8,5.8-5.5,8.9-8v-59.8Z" fill="url(#linear-gradient2)"/>
    </g>
    <path d="M265.6,27.7s11.6,7.9,16.8,11.7c-22.6,27.2-45.4,46.3-92.9,71.9-33.8,18.1-76.1,65.8-35.6,107.9-34.4-48.6,20.8-88,54.5-106.1,64.6-34.7,78.8-57.2,113.5-104.6l-56.3,19.3Z" fill="url(#linear-gradient3)"/>
    <path d="M321.9,8.5c-34.7,47.4-48.9,69.9-113.5,104.6-33.8,18.1-88.9,57.5-54.5,106.1-24-49.5,27-79.1,61-96,47-23.3,66.6-41.3,86.7-67l13.8,13.1,6.5-60.7Z" fill="url(#linear-gradient4)"/>
    <rect x="241.7" y="145.8" width="12.6" height="12.6" fill="#f4a419"/>
    <rect x="254.2" y="133.2" width="12.6" height="12.6" fill="#f4cb19"/>
    <rect x="296.8" y="135.2" width="7.8" height="7.8" fill="#e98c24"/>
    <rect x="309.2" y="98.7" width="10.4" height="10.4" fill="#f4cb19"/>
    <rect x="289.5" y="111.6" width="15.1" height="15.1" fill="#f4a419"/>
    <path d="M222.3,224.9c-.8,0-1.5-.7-1.5-1.5v-8.4c0-.8.7-1.5,1.5-1.5s1.5.7,1.5,1.5v8.4c0,.8-.7,1.5-1.5,1.5Z" fill="#fff"/>
    <g>
      <g>
        <rect x="210.9" y="47.1" width="21" height="5" rx="2.5" ry="2.5" fill="#fff"/>
        <circle cx="238.6" cy="49.6" r="2.5" fill="#fff"/>
      </g>
      <path d="M222.3,232.9c-4.9,0-8.9-4-8.9-8.9s.9-4.6,2.7-6.3c.6-.6,1.5-.6,2.1,0,.6.6.6,1.5,0,2.1-1.1,1.1-1.8,2.6-1.8,4.2,0,3.3,2.7,5.9,5.9,5.9s5.9-2.7,5.9-5.9-.6-3.1-1.8-4.2c-.6-.6-.6-1.5,0-2.1.6-.6,1.5-.6,2.1,0,1.7,1.7,2.7,3.9,2.7,6.3,0,4.9-4,8.9-8.9,8.9Z" fill="#fff"/>
    </g>
    <polygon points="269.5 172.8 225.4 154.4 237.7 200.5 246.4 189.6 256.7 201.4 267.8 191.7 257.4 179.9 269.5 172.8" fill="#2e3159"/>
    <polygon points="230.8 160.5 259.9 193.8 262.7 191.4 251.9 179 261.5 173.3 230.8 160.5" fill="#fff"/>
    <polygon points="239.3 192.7 246.2 183.9 257.1 196.3 259.9 193.8 230.8 160.5 239.3 192.7" fill="#e6e7e8"/>
    <path d="M220.4,134.1c7.8-3.9,14.9-7.6,21.3-11.3v-2.2h3.9c2.7-1.6,5.2-3.1,7.7-4.6v-7.6c-10,6.4-21.7,13-35.8,20-14.6,7.2-32.3,16.9-45.4,29.2v9.2c12.6-13.9,32.4-24.8,48.3-32.7Z" fill="url(#New_Gradient_Swatch_12)"/>
  </g>
</svg>